PathFileType	4	(x/y/z)	S02_M20_T11
DataRate	CameraRate	NumFrames	NumMarkers	Units	OrigDataRate	OrigDataStartFrame	OrigNumFrames
240	240	11	51	mm	240	408	466
Frame#	Time	Sternum			R.Acromium			L.Acromium			Top.Head			R.ASIS			L.ASIS			R.PSIS			L.PSIS			R.Great.Tro			L.Great.Tro			R.Iliac.Crest			L.Iliac.Crest			V.Sacral			R.Thigh.Upper.Post			R.Thigh.Lower.Ant			R.Thigh.Lower.Post			R.Thigh.Upper.Ant			R.Knee.Lat			R.Knee.Med			R.Shank.Upper.Post			R.Shank.Lower.Ant			R.Shank.Lower.Post			R.Shank.Upper.Ant			R.Ankle.Lat			R.Ankle.Med			R.Heel.Upper			R.Heel.Med			R.Heel.Lat			R.Toe.Lat			R.Toe.Med			R.Toe.Tip			L.Thigh.Upper.Post			L.Thigh.Lower.Ant			L.Thigh.Lower.Post			L.Thigh.Upper.Ant			L.Knee.Lat			L.Knee.Med			L.Shank.Upper.Post			L.Shank.Lower.Ant			L.Shank.Lower.Post			L.Shank.Upper.Ant			L.Ankle.Lat			L.Ankle.Med			L.Heel.Upper			L.Heel.Med			L.Heel.Lat			L.Toe.Lat			L.Toe.Med			L.Toe.Tip			Cervical.Spine			Back			
		X1	Y1	Z1	X2	Y2	Z2	X3	Y3	Z3	X4	Y4	Z4	X5	Y5	Z5	X6	Y6	Z6	X7	Y7	Z7	X8	Y8	Z8	X9	Y9	Z9	X10	Y10	Z10	X11	Y11	Z11	X12	Y12	Z12	X13	Y13	Z13	X14	Y14	Z14	X15	Y15	Z15	X16	Y16	Z16	X17	Y17	Z17	X18	Y18	Z18	X19	Y19	Z19	X20	Y20	Z20	X21	Y21	Z21	X22	Y22	Z22	X23	Y23	Z23	X24	Y24	Z24	X25	Y25	Z25	X26	Y26	Z26	X27	Y27	Z27	X28	Y28	Z28	X29	Y29	Z29	X30	Y30	Z30	X31	Y31	Z31	X32	Y32	Z32	X33	Y33	Z33	X34	Y34	Z34	X35	Y35	Z35	X36	Y36	Z36	X37	Y37	Z37	X38	Y38	Z38	X39	Y39	Z39	X40	Y40	Z40	X41	Y41	Z41	X42	Y42	Z42	X43	Y43	Z43	X44	Y44	Z44	X45	Y45	Z45	X46	Y46	Z46	X47	Y47	Z47	X48	Y48	Z48	X49	Y49	Z49	X50	Y50	Z50	X51	Y51	Z51	

408	1.6958	636.02	1099.2	256.58	519.25	1336.6	388.18	539.79	1331.9	96.312	607.92	1608.5	247.4	619.79	930.19	358.99	615.21	913.66	145.21	409.39	962.4	317.23	396.55	968.62	244.65	571.41	813.79	457.7	478.64	837.54	69.87	521.66	976.63	421.94	486.15	962.29	89.799	376.57	917.62	275.94	659.17	628.2	449.89	736.8	577.04	407.34	678.44	541.02	432.62	712.32	662.48	421.77	723	478.47	414.95	720.6	460.44	271.02	711.37	260.91	398.94	810.07	211.21	396.28	744.41	195.3	392.85	782.43	274.78	409.55	795.72	109.37	386.18	812.82	129.14	307.33	756.06	74.557	321.39	785.2	52.613	295.93	765	43.43	355.82	906.17	91.222	427.94	954.27	109.8	331.56	976.2	148.69	394.51	414.8	621.64	106.28	473.89	528.88	113.75	397.05	535.6	131.29	485.02	620.86	89.521	439.71	452.83	127.31	436.95	455.67	266.05	327.48	296.57	138.74	383.85	201.27	156.01	315.37	225.66	158.39	389.27	275.33	136.71	329.58	103.71	174.97	336.88	103.04	257.1	264.45	74.641	211.36	272.67	48.539	244.83	268.6	46.788	183.29	433.98	34.244	152.95	455.61	44.333	262.24	516.69	57.407	215.52	457.89	1392.2	235.62	378.18	1141.7	246.39
409	1.7	640.99	1097.8	256.81	524.1	1335.3	388.53	544.96	1330.8	96.744	612.93	1607.3	248.14	625.14	929.1	359.06	619.94	912.68	145.11	414.54	961.16	317.94	401.4	967.46	245.44	577.16	812.39	457.67	482.83	837.06	70.022	527.04	975.4	422.29	490.51	961.17	90.163	381.58	916.38	276.7	664.68	627.05	449.61	742.16	575.88	406.8	683.9	539.87	432.32	717.7	661.34	421.25	728.7	477.58	414.68	725.88	459.4	270.52	721.42	260.05	399.17	821.22	212.41	396.19	755.83	195.13	392.99	792.3	275.47	409.48	809.11	110.08	386.25	825.31	130.14	307.32	769.79	74.289	321.87	799.24	52.939	296.27	779.56	43.423	356.26	920.19	94.291	427.45	967.32	113.76	330.77	988.81	153.21	393.49	417.71	621.71	106.42	476.09	528.48	113.69	399.33	535.79	131.41	487.9	620.4	89.492	441.41	452.63	127.25	438.66	455.41	266.05	328.46	296.88	138.72	384.42	201.32	155.97	316.05	226.02	158.4	390.15	275.35	136.66	329.73	103.89	175.03	337.08	103.22	257.11	264.55	74.846	211.4	272.73	48.731	244.87	268.65	46.985	183.33	433.98	34.211	152.94	455.66	44.307	262.22	516.74	57.305	215.48	462.88	1391.1	235.96	383.1	1140.6	246.6
410	1.7042	645.99	1096.5	257.05	528.97	1333.9	388.9	550.15	1329.6	97.195	617.96	1606	248.9	630.51	927.97	359.12	624.68	911.67	145.01	419.71	959.91	318.65	406.27	966.28	246.23	582.89	810.93	457.64	487.05	836.56	70.165	532.46	974.13	422.65	494.89	960.04	90.525	386.61	915.13	277.48	670.18	625.87	449.33	747.53	574.7	406.3	689.35	538.69	432.01	723.08	660.17	420.78	734.41	476.68	414.41	731.17	458.35	270.04	731.3	259.26	399.38	832.11	213.6	396.07	767.01	195.02	393.1	801.98	276.14	409.38	822.16	110.84	386.26	837.47	131.17	307.27	783.16	74.123	322.29	812.88	53.345	296.55	793.74	43.523	356.65	933.82	97.326	426.89	979.97	117.64	329.9	1001.1	157.6	392.42	420.67	621.73	106.58	478.35	528.05	113.62	401.7	535.94	131.53	490.82	619.91	89.454	443.19	452.4	127.2	440.51	455.11	266.05	329.52	297.19	138.7	385.03	201.36	155.92	316.77	226.38	158.41	391.1	275.34	136.61	329.87	104.07	175.09	337.29	103.41	257.11	264.65	75.058	211.43	272.79	48.93	244.91	268.7	47.185	183.37	433.99	34.178	152.93	455.71	44.281	262.2	516.8	57.201	215.45	467.88	1390	236.33	388.04	1139.5	246.83
411	1.7083	651.02	1095.1	257.3	533.87	1332.5	389.29	555.33	1328.4	97.664	622.99	1604.8	249.66	635.9	926.79	359.19	629.43	910.63	144.91	424.9	958.65	319.37	411.17	965.09	247.04	588.62	809.43	457.62	491.29	836.01	70.301	537.91	972.84	423.02	499.28	958.9	90.883	391.67	913.86	278.27	675.67	624.67	449.07	752.91	573.51	405.84	694.81	537.49	431.69	728.48	658.98	420.36	740.12	475.78	414.16	736.46	457.3	269.59	741.01	258.52	399.57	842.74	214.77	395.9	777.93	194.95	393.16	811.46	276.8	409.25	834.87	111.64	386.22	849.3	132.21	307.16	796.15	74.043	322.66	826.12	53.812	296.76	807.52	43.709	356.97	947.04	100.3	426.28	992.21	121.41	328.96	1012.9	161.84	391.29	423.68	621.71	106.75	480.68	527.59	113.53	404.14	536.03	131.67	493.77	619.38	89.409	445.07	452.13	127.14	442.52	454.76	266.04	330.65	297.49	138.69	385.68	201.37	155.88	317.56	226.74	158.42	392.12	275.32	136.57	330.03	104.26	175.14	337.51	103.61	257.12	264.75	75.278	211.47	272.86	49.137	244.95	268.75	47.392	183.4	434	34.145	152.92	455.75	44.254	262.18	516.85	57.096	215.42	472.9	1388.8	236.72	393	1138.3	247.09
412	1.7125	656.08	1093.7	257.56	538.8	1331.1	389.69	560.53	1327.2	98.152	628.03	1603.5	250.44	641.3	925.57	359.26	634.19	909.56	144.81	430.12	957.39	320.1	416.1	963.89	247.85	594.34	807.88	457.59	495.56	835.43	70.433	543.4	971.52	423.41	503.69	957.75	91.236	396.77	912.59	279.06	681.16	623.46	448.82	758.32	572.31	405.42	700.28	536.28	431.38	733.89	657.78	419.99	745.85	474.88	413.92	741.76	456.25	269.16	750.53	257.84	399.75	853.1	215.9	395.69	788.6	194.92	393.19	820.75	277.43	409.09	847.21	112.46	386.12	860.78	133.24	307.01	808.76	74.029	322.95	838.95	54.319	296.91	820.87	43.958	357.22	959.85	103.17	425.61	1004	125.03	327.96	1024.4	165.9	390.12	426.73	621.64	106.95	483.09	527.11	113.44	406.66	536.07	131.83	496.77	618.84	89.359	447.06	451.83	127.09	444.69	454.35	266.02	331.86	297.79	138.67	386.38	201.37	155.85	318.4	227.11	158.42	393.21	275.28	136.52	330.19	104.45	175.19	337.73	103.81	257.13	264.85	75.509	211.49	272.92	49.355	244.99	268.81	47.605	183.44	434	34.112	152.92	455.8	44.227	262.16	516.91	56.989	215.39	477.93	1387.6	237.13	397.98	1137.1	247.37
413	1.7167	661.17	1092.2	257.83	543.76	1329.7	390.12	565.73	1325.9	98.658	633.09	1602.2	251.22	646.71	924.32	359.32	638.97	908.46	144.7	435.36	956.12	320.82	421.06	962.68	248.66	600.05	806.31	457.58	499.85	834.81	70.562	548.92	970.19	423.8	508.12	956.6	91.585	401.89	911.31	279.86	686.66	622.23	448.58	763.75	571.12	405.02	705.78	535.06	431.07	739.31	656.59	419.66	751.6	473.99	413.69	747.07	455.2	268.75	759.87	257.19	399.89	863.19	216.96	395.43	799	194.9	393.16	829.83	278.01	408.89	859.17	113.27	385.97	871.91	134.24	306.8	820.95	74.061	323.18	851.34	54.847	296.98	833.79	44.248	357.39	972.22	105.92	424.87	1015.4	128.48	326.89	1035.5	169.74	388.9	429.84	621.52	107.15	485.58	526.59	113.33	409.27	536.06	131.99	499.81	618.27	89.307	449.14	451.49	127.04	447.02	453.9	265.98	333.15	298.09	138.66	387.13	201.35	155.81	319.3	227.48	158.42	394.37	275.22	136.48	330.36	104.65	175.23	337.97	104.03	257.14	264.96	75.752	211.51	272.99	49.588	245.02	268.86	47.828	183.47	434.01	34.079	152.91	455.85	44.199	262.14	516.96	56.881	215.36	482.99	1386.4	237.58	402.98	1135.9	247.68
414	1.7208	666.28	1090.8	258.1	548.76	1328.2	390.57	570.95	1324.6	99.181	638.16	1600.9	252.02	652.14	923.04	359.38	643.76	907.33	144.6	440.63	954.85	321.55	426.06	961.47	249.47	605.75	804.72	457.57	504.16	834.16	70.691	554.48	968.83	424.2	512.58	955.44	91.927	407.06	910.03	280.67	692.18	621.01	448.36	769.21	569.95	404.66	711.3	533.86	430.77	744.76	655.4	419.37	757.39	473.11	413.46	752.4	454.16	268.36	769	256.58	400.02	872.99	217.96	395.13	809.11	194.89	393.09	838.71	278.54	408.65	870.73	114.05	385.76	882.67	135.19	306.54	832.73	74.12	323.32	863.29	55.375	296.97	846.25	44.553	357.48	984.16	108.52	424.08	1026.4	131.74	325.76	1046.2	173.35	387.65	433	621.35	107.38	488.15	526.05	113.21	411.97	535.99	132.17	502.9	617.67	89.254	451.34	451.12	126.99	449.51	453.39	265.94	334.52	298.38	138.65	387.93	201.32	155.77	320.27	227.86	158.42	395.6	275.13	136.45	330.54	104.86	175.26	338.21	104.25	257.15	265.08	76.011	211.52	273.05	49.837	245.05	268.92	48.063	183.49	434.02	34.047	152.9	455.9	44.171	262.13	517.02	56.769	215.33	488.07	1385.2	238.05	407.99	1134.7	248.01
415	1.725	671.42	1089.3	258.37	553.79	1326.7	391.04	576.17	1323.3	99.722	643.24	1599.6	252.83	657.58	921.72	359.43	648.57	906.16	144.49	445.93	953.59	322.27	431.09	960.26	250.27	611.45	803.12	457.58	508.49	833.46	70.823	560.07	967.47	424.61	517.07	954.27	92.263	412.25	908.76	281.48	697.72	619.8	448.16	774.71	568.81	404.32	716.86	532.67	430.47	750.23	654.24	419.11	763.21	472.25	413.24	757.75	453.12	268	777.93	255.99	400.1	882.51	218.87	394.77	818.93	194.86	392.97	847.38	279	408.38	881.89	114.78	385.48	893.05	136.08	306.22	844.08	74.186	323.4	874.77	55.88	296.89	858.24	44.853	357.49	995.66	110.93	423.23	1037	134.78	324.58	1056.5	176.69	386.37	436.22	621.14	107.61	490.81	525.49	113.09	414.76	535.87	132.36	506.04	617.05	89.203	453.64	450.71	126.94	452.15	452.83	265.89	335.97	298.68	138.64	388.78	201.27	155.73	321.29	228.24	158.42	396.91	275.03	136.42	330.73	105.08	175.29	338.46	104.49	257.17	265.19	76.288	211.53	273.12	50.108	245.08	268.98	48.314	183.51	434.03	34.014	152.9	455.95	44.144	262.11	517.08	56.655	215.31	493.17	1383.9	238.55	413.03	1133.5	248.37
416	1.7292	676.59	1087.8	258.64	558.85	1325.1	391.53	581.4	1322	100.28	648.34	1598.3	253.65	663.04	920.37	359.48	653.39	904.97	144.39	451.25	952.34	322.98	436.15	959.06	251.07	617.13	801.53	457.6	512.84	832.72	70.96	565.7	966.09	425.01	521.59	953.1	92.594	417.48	907.5	282.29	703.29	618.61	447.98	780.25	567.7	404.01	722.46	531.5	430.19	755.73	653.11	418.89	769.07	471.4	413.02	763.13	452.09	267.66	786.65	255.42	400.16	891.74	219.67	394.37	828.45	194.8	392.8	855.84	279.37	408.07	892.64	115.44	385.15	903.05	136.88	305.85	854.98	74.239	323.39	885.79	56.343	296.72	869.74	45.123	357.41	1006.7	113.14	422.33	1047.1	137.57	323.35	1066.5	179.74	385.06	439.5	620.88	107.86	493.57	524.9	112.97	417.65	535.7	132.57	509.24	616.41	89.156	456.06	450.27	126.89	454.95	452.21	265.83	337.51	298.97	138.63	389.67	201.21	155.7	322.38	228.63	158.42	398.3	274.92	136.39	330.93	105.31	175.31	338.73	104.74	257.18	265.32	76.587	211.53	273.19	50.404	245.1	269.04	48.582	183.53	434.04	33.981	152.89	456.01	44.117	262.1	517.15	56.537	215.28	498.29	1382.7	239.08	418.1	1132.2	248.75
417	1.7333	681.78	1086.3	258.92	563.95	1323.6	392.04	586.64	1320.7	100.86	653.45	1597	254.48	668.52	919	359.51	658.23	903.75	144.28	456.61	951.09	323.69	441.25	957.86	251.85	622.81	799.95	457.63	517.2	831.95	71.107	571.37	964.72	425.42	526.15	951.94	92.92	422.74	906.25	283.09	708.89	617.44	447.82	785.84	566.63	403.72	728.12	530.36	429.93	761.26	652	418.69	774.98	470.58	412.8	768.54	451.08	267.34	795.14	254.85	400.17	900.67	220.35	393.93	837.66	194.71	392.58	864.09	279.66	407.73	902.95	116.02	384.76	912.67	137.58	305.43	865.42	74.259	323.31	896.33	56.742	296.48	880.75	45.345	357.25	1017.3	115.11	421.38	1056.8	140.1	322.08	1076	182.49	383.73	442.84	620.58	108.13	496.41	524.28	112.85	420.63	535.48	132.79	512.51	615.75	89.115	458.59	449.79	126.85	457.91	451.56	265.76	339.13	299.26	138.63	390.62	201.15	155.66	323.53	229.03	158.41	399.76	274.78	136.37	331.15	105.56	175.32	339.01	105.02	257.19	265.45	76.912	211.51	273.27	50.73	245.11	269.11	48.873	183.54	434.05	33.947	152.89	456.06	44.09	262.08	517.22	56.416	215.26	503.43	1381.4	239.64	423.18	1130.9	249.16
418	1.7375	687	1084.8	259.19	569.09	1322	392.58	591.9	1319.4	101.45	658.58	1595.7	255.32	674.01	917.61	359.54	663.08	902.49	144.18	461.99	949.86	324.38	446.39	956.67	252.62	628.48	798.39	457.68	521.58	831.14	71.266	577.07	963.33	425.83	530.74	950.77	93.242	428.04	905.02	283.89	714.53	616.31	447.68	791.48	565.61	403.45	733.84	529.26	429.68	766.82	650.95	418.51	780.95	469.78	412.58	774	450.09	267.04	803.4	254.28	400.15	909.31	220.9	393.43	846.56	194.58	392.31	872.13	279.85	407.35	912.83	116.48	384.32	921.88	138.17	304.95	875.39	74.23	323.15	906.37	57.059	296.16	891.25	45.498	357.02	1027.4	116.84	420.38	1066.1	142.33	320.78	1085.2	184.9	382.39	446.25	620.24	108.4	499.36	523.64	112.73	423.72	535.22	133.02	515.84	615.07	89.082	461.23	449.28	126.82	461	450.86	265.68	340.83	299.56	138.62	391.61	201.08	155.62	324.75	229.43	158.4	401.31	274.64	136.36	331.39	105.83	175.32	339.3	105.31	257.21	265.6	77.268	211.49	273.34	51.091	245.12	269.18	49.19	183.54	434.07	33.913	152.89	456.12	44.065	262.06	517.29	56.291	215.24	508.61	1380.2	240.22	428.28	1129.7	249.59
